<svg xmlns="http://www.w3.org/2000/svg" viewBox="0 0 270 270">
  <rect width="100%" height="100%" fill="#EAECEF"/>
  <path fill="#C4CCD4" fill-rule="nonzero" d="M149.978117 139.805381C149.978117 130.535398 144.202717 122.253809 135.455374 119.101409 122.600896 114.467794 104.16436 109.041261 75.4033627 109.041261 46.6423658 109.041261 28.2058293 114.467794 15.3513513 119.101409 6.60400881 122.253809.828608383 130.532645.828608383 139.805381L.828608383 154.413366C22.4343103 172.240351 47.2925618 181.153844 75.4033627 181.153844 103.514164 181.153844 128.372415 171.960003 149.978117 153.572323L149.978117 139.805381zM75.4033627 92.1249912C50.3440357 92.1249912 30.0334632 71.8733677 30.0334632 46.8972745 30.0334632 21.9211811 50.3440357 1.67258647 75.4033627 1.67258647 100.46269 1.67258647 120.773262 21.9211811 120.773262 46.8972745 120.773262 71.8733677 100.46269 92.1249912 75.4033627 92.1249912z" transform="translate(60 43)"/>
</svg>
